<svg width="40" height="40" viewBox="0 0 40 40" fill="none" xmlns="http://www.w3.org/2000/svg">
<path d="M20 0.625C9.29688 0.625 0.625 9.29688 0.625 20C0.625 30.7031 9.29688 39.375 20 39.375C30.7031 39.375 39.375 30.7031 39.375 20C39.375 9.29688 30.7031 0.625 20 0.625ZM29.5 25.0859C29.8672 25.4531 29.8672 26.0469 29.5 26.4141L26.4062 29.5C26.0391 29.8672 25.4453 29.8672 25.0781 29.5L20 24.375L14.9141 29.5C14.5469 29.8672 13.9531 29.8672 13.5859 29.5L10.5 26.4062C10.1328 26.0391 10.1328 25.4453 10.5 25.0781L15.625 20L10.5 14.9141C10.1328 14.5469 10.1328 13.9531 10.5 13.5859L13.5938 10.4922C13.9609 10.125 14.5547 10.125 14.9219 10.4922L20 15.625L25.0859 10.5C25.4531 10.1328 26.0469 10.1328 26.4141 10.5L29.5078 13.5938C29.875 13.9609 29.875 14.5547 29.5078 14.9219L24.375 20L29.5 25.0859Z" fill="#222"/>
</svg>
