<!DOCTYPE svg PUBLIC "-//W3C//DTD SVG 1.1//EN" "http://www.w3.org/Graphics/SVG/1.1/DTD/svg11.dtd">
<!-- Uploaded to: SVG Repo, www.svgrepo.com, Transformed by: SVG Repo Mixer Tools -->
<svg width="800px" height="800px" viewBox="0 0 1024 1024" class="icon" version="1.1" xmlns="http://www.w3.org/2000/svg" fill="#000000">
<g id="SVGRepo_bgCarrier" stroke-width="0"/>
<g id="SVGRepo_tracerCarrier" stroke-linecap="round" stroke-linejoin="round"/>
<g id="SVGRepo_iconCarrier">
<path d="M278.1 227.4h468.2v572.2H278.1z" fill="#ff0505"/>
<path d="M649.9 565.5c0 76-61.7 137.7-137.7 137.7-76.1 0-137.7-61.7-137.7-137.7s61.7-137.7 137.7-137.7c76 0 137.7 61.7 137.7 137.7z" fill="#CDE9E3"/>
<path d="M321.4 270.6h138.7v34.7H321.4z" fill="#EFE2C2"/>
<path d="M746.3 210.1H278.1c-9.6 0-17.3 7.8-17.3 17.3v572.2c0 9.6 7.8 17.3 17.3 17.3h468.2c9.6 0 17.3-7.8 17.3-17.3V227.4c0-9.5-7.7-17.3-17.3-17.3zM729 244.8v86.6H295.4v-86.6H729zM295.4 782.3V348.7H729v433.6H295.4z" fill="#211F1E"/>
<path d="M624.9 305.3c9.6 0 17.3-7.8 17.3-17.3 0-9.6-7.8-17.3-17.3-17.3-9.6 0-17.3 7.8-17.3 17.3-0.1 9.6 7.7 17.3 17.3 17.3zM676.9 305.3c9.6 0 17.3-7.8 17.3-17.3 0-9.6-7.8-17.3-17.3-17.3-9.6 0-17.3 7.8-17.3 17.3 0 9.6 7.7 17.3 17.3 17.3zM321.4 314h138.7c4.8 0 8.7-3.9 8.7-8.7v-34.7c0-4.8-3.9-8.7-8.7-8.7H321.4c-4.8 0-8.7 3.9-8.7 8.7v34.7c0.1 4.8 3.9 8.7 8.7 8.7z m8.7-34.7h121.4v17.3H330.1v-17.3zM546.9 296.7h34.7c4.8 0 8.7-3.9 8.7-8.7 0-4.8-3.9-8.7-8.7-8.7h-34.7c-4.8 0-8.7 3.9-8.7 8.7 0 4.8 3.9 8.7 8.7 8.7zM512.2 418.2c-81.3 0-147.4 66.1-147.4 147.4 0 81.3 66.1 147.4 147.4 147.4s147.4-66.1 147.4-147.4c0-81.3-66.1-147.4-147.4-147.4z m0 260.1c-46.4 0-86.4-28.2-103.6-68.4 3-2.9 5.5-6.2 7.6-9.1 5.2-7.2 7.8-10.1 12.8-10.1 5 0 7.6 2.9 12.8 10.1 5.3 7.3 12.5 17.2 26.8 17.2s21.6-9.9 26.8-17.2c5.2-7.2 7.8-10.1 12.8-10.1 5 0 7.6 2.9 12.8 10.1 5.3 7.3 12.5 17.2 26.8 17.2s21.5-9.9 26.8-17.2c5.2-7.1 7.8-10.1 12.8-10.1 5 0 7.6 2.9 12.8 10.1 3.3 4.5 7.3 10 13.3 13.6-18 37.7-56.6 63.9-101.3 63.9z m108-80.8c-1.7-1.6-3.5-3.8-5.8-7-5.3-7.3-12.5-17.2-26.8-17.2s-21.5 9.9-26.8 17.2c-5.2 7.2-7.8 10.1-12.8 10.1-5 0-7.6-2.9-12.8-10.1-5.3-7.3-12.5-17.2-26.8-17.2s-21.6 9.9-26.9 17.2c-5.2 7.1-7.8 10.1-12.8 10.1-5 0-7.6-2.9-12.8-10.1-5.3-7.3-12.5-17.2-26.8-17.2-14.2 0-21.4 9.7-26.7 17-1.8-8-2.8-16.2-2.8-24.7 0-62.2 50.6-112.7 112.7-112.7S625 503.5 625 565.6c-0.1 11.1-1.8 21.8-4.8 31.9z" fill="#211F1E"/>
</g>
</svg>